<?xml version="1.0" encoding="iso-8859-1"?>
<!-- Uploaded to: SVG Repo, www.svgrepo.com, Generator: SVG Repo Mixer Tools -->
<svg fill="#000000" height="800px" width="800px" version="1.1" id="Layer_1" xmlns="http://www.w3.org/2000/svg" xmlns:xlink="http://www.w3.org/1999/xlink" 
	 viewBox="0 0 512 512" xml:space="preserve">
<g>
	<g>
		<path d="M511.13,256.639c-0.997-3.448-3.138-9.403-7.736-20.716c-4.571-11.252-12.125-28.584-22.143-47.258
			c-26.38-49.174-55.746-82.516-87.279-99.095c-35.548-18.69-73.539-15.359-109.871,9.638c-1.292,0.889-2.509,1.732-3.661,2.529
			c-13.399,9.278-14.202,9.834-24.44,9.834c-10.238,0-11.04-0.555-24.439-9.833c-1.153-0.798-2.37-1.641-3.663-2.53
			c-36.329-24.996-74.32-28.328-109.87-9.638c-31.534,16.581-60.899,49.921-87.279,99.097
			c-10.017,18.674-17.572,36.006-22.144,47.258c-4.241,10.435-6.389,16.306-7.48,19.862C0.436,257.575,0,259.693,0,261.833
			c0,1.417,0.275,3.447,0.775,5.03c1.553,5.266,14.393,45.811,52.176,86.284c22.152,23.73,48.484,42.611,78.263,56.117
			c36.706,16.649,78.69,25.09,124.787,25.09c46.115,0,88.113-8.448,124.829-25.109c29.783-13.516,56.116-32.407,78.268-56.15
			c37.745-40.457,50.552-80.886,52.126-86.227c0.447-1.411,0.777-3.304,0.777-5.035C512,259.79,511.494,257.753,511.13,256.639z
			 M256,400.963c-136.603,0-194.009-81.257-214.037-121.435c7.861,0.017,17.448-0.033,28.635-0.155
			c24.776-0.267,49.606-0.794,52.014-0.846c25.775,0.032,52.508,7.294,79.462,21.581c16.46,8.724,35.073,13.333,53.84,13.333
			c0.058,0,0.115,0,0.174,0c18.765,0,37.382-4.61,53.84-13.333c26.955-14.287,53.688-21.549,79.462-21.581
			c2.407,0.051,27.237,0.579,52.013,0.846c11.189,0.12,20.788,0.171,28.634,0.155C450.006,319.706,392.596,400.963,256,400.963z
			 M163.283,249.902c24.279-17.652,45.158-27.374,58.803-27.374c10.593,0,17.343,5.256,19.778,7.54
			c0.486,0.735,1.036,1.438,1.649,2.104c5.575,6.052,14.731,7.137,21.569,2.558c1.45-0.972,2.728-2.151,3.8-3.487
			c1.31-1.418,8.646-8.714,21.031-8.714c13.645,0,34.524,9.722,58.803,27.374c-18.089,4.177-36.286,11.087-54.428,20.704
			c-11.66,6.18-24.867,9.445-38.201,9.445c-0.023,0-0.049,0-0.073,0c-0.035-0.001-0.069,0-0.102,0
			c-13.333,0-26.542-3.266-38.201-9.445C199.57,260.99,181.373,254.08,163.283,249.902z M442.162,245.994
			c-1.653-0.548-3.415-0.856-5.251-0.856c-24.861,0-48.509-7.649-68.387-22.12c-30.88-22.481-57.329-33.88-78.611-33.88
			c-14.703,0-26.074,4.796-33.983,9.86c-7.86-5.029-19.218-9.86-33.843-9.86c-21.281,0-47.731,11.399-78.611,33.88
			c-19.878,14.47-43.524,22.118-68.387,22.118c-1.836,0-3.6,0.308-5.252,0.856c-11.05,0.114-21.128,0.167-29.326,0.141
			c5.434-13.171,13.601-31.242,24.274-50.041c25.12-44.245,52.691-72.501,79.736-81.713c20.937-7.132,42.018-3.098,64.45,12.337
			c1.264,0.869,2.455,1.694,3.582,2.474c15.165,10.5,22.777,15.771,43.448,15.771c20.67,0,28.282-5.271,43.449-15.772
			c1.128-0.78,2.316-1.604,3.581-2.473c22.429-15.433,43.511-19.472,64.45-12.337c27.045,9.212,54.616,37.468,79.735,81.714
			c10.673,18.799,18.841,36.871,24.274,50.041C463.29,246.16,453.214,246.108,442.162,245.994z"/>
	</g>
</g>
</svg>