<?xml version="1.0" encoding="iso-8859-1"?>
<!-- Uploaded to: SVG Repo, www.svgrepo.com, Generator: SVG Repo Mixer Tools -->
<svg fill="#000000" height="800px" width="800px" version="1.1" id="Layer_1" xmlns="http://www.w3.org/2000/svg" xmlns:xlink="http://www.w3.org/1999/xlink" 
	 viewBox="0 0 512 512" xml:space="preserve">
<g>
	<g>
		<path d="M509.68,228.36L412.159,59.424c-0.001-0.001-0.002-0.002-0.002-0.002c-12.211-21.142-34.958-34.275-59.367-34.275
			c-5.535,0-188.248,0-193.581,0c-24.408,0-47.156,13.133-59.37,34.277L2.32,228.36c-4.776,8.277-1.94,18.87,6.339,23.651
			l83.751,48.345c6.527,3.768,14.487,2.805,19.908-1.83v171.013c0,9.562,7.752,17.314,17.314,17.314h252.737
			c9.562,0,17.314-7.752,17.314-17.314V298.527c5.42,4.632,13.383,5.597,19.908,1.83l83.751-48.345
			C511.616,247.232,514.459,236.641,509.68,228.36z M288.178,59.775C273.152,80.234,269.457,89.034,256,89.034
			c-13.409,0-17.07-8.687-32.179-29.259H288.178z M94.726,261.709l-53.76-31.034l11.253-19.493l53.761,31.032L94.726,261.709z
			 M373.897,220.775c-0.002,0.001-0.006,0.003-0.008,0.005c-5.721,3.304-8.832,9.049-8.832,15.097v216.349h-0.002H146.946V235.876
			c0-5.894-3.051-11.757-8.832-15.097c-0.002-0.001-0.006-0.003-0.008-0.005l-68.573-39.582L129.83,76.74
			c6.044-10.463,17.301-16.964,29.381-16.964h21.648c29.583,40.282,40.486,63.887,75.143,63.887
			c34.659,0,45.588-23.645,75.143-63.887h21.648c12.077,0,23.335,6.5,29.378,16.961l60.299,104.456L373.897,220.775z
			 M417.274,261.709l-11.254-19.494l53.761-31.032l11.253,19.493L417.274,261.709z"/>
	</g>
</g>
<g>
	<g>
		<circle cx="256.004" cy="175.298" r="17.112"/>
	</g>
</g>
<g>
	<g>
		<circle cx="256.004" cy="239.799" r="17.112"/>
	</g>
</g>
</svg>