<svg xmlns="http://www.w3.org/2000/svg" viewBox="0 0 4100 4093.24"><defs><style>.cls-1{fill:#c4e9f6;stroke:#c4e9f6;stroke-miterlimit:10;stroke-width:101px;}.cls-2,.cls-6{fill:#f7941d;}.cls-2{stroke:#f7941d;stroke-width:100px;}.cls-2,.cls-3,.cls-8{stroke-linecap:round;stroke-linejoin:round;}.cls-3,.cls-8{fill:none;stroke:#231f20;}.cls-3{stroke-width:64px;}.cls-4{fill:#231f20;}.cls-5{fill:#fff;}.cls-7{fill:#f27a91;}.cls-8{stroke-width:150px;}</style></defs><g id="Layer_1" data-name="Layer 1"><path class="cls-1" d="M2048,56.47C967.09,56.48-8.06,1033.4,59.82,2179.1c63.39,1069.74,1011,1863.71,1994.72,1860.42,979-3.28,1918.59-795.94,1981.64-1860.42C4104,1034.27,3129.39,56.47,2048,56.47Z" transform="translate(2 -1.88)"/><path class="cls-2" d="M3894.87,1324.85C3612.21,622,2903.92,145.46,2226.85,68A1772.16,1772.16,0,0,0,2032.1,56.47c-33.74.81-91.7,3.16-162.95,11.48-663.82,77.57-1380.58,542.15-1668,1256.9C141.64,1472.79-67.79,2017,133.47,2664.12c185.79,597.38,604.1,904.94,733,992.35-228.64-181.69-325-486.36-243.45-752.06,97.53-317.82,400.49-419.93,429-429-108.14-95.65-258.1-257.17-362.27-499.05-57.73-134-137.63-319.56-111.2-568.18,30.6-287.8,183.89-474.13,227.76-524.22,57.86-66.08,328-355.25,714.1-299.71,293,42.15,483,256.12,527.55,314.6h0c44.57-58.48,234.5-272.45,527.55-314.6,386.12-55.54,656.24,233.63,714.1,299.71,43.87,50.09,197.16,236.42,227.76,524.22,26.43,248.62-53.47,434.15-111.2,568.18-104.17,241.88-254.13,403.4-362.27,499.05,28.54,9.06,331.5,111.17,429,429,81.54,265.7-14.81,570.37-243.45,752.06,128.91-87.41,547.22-395,733-992.35C4163.79,2017,3954.36,1472.79,3894.87,1324.85Z" transform="translate(2 -1.88)"/><path class="cls-3" d="M2698.81,2419.86H1452.87" transform="translate(2 -1.88)"/><ellipse class="cls-4" cx="1454.87" cy="1322.31" rx="254.92" ry="407.86"/><ellipse class="cls-4" cx="2700.81" cy="1361.99" rx="254.92" ry="407.86"/><circle class="cls-5" cx="2586.22" cy="1290.44" r="31.86"/><circle class="cls-5" cx="2700.81" cy="1127.15" r="71.55"/><circle class="cls-5" cx="1454.87" cy="1087.46" r="71.55"/><circle class="cls-5" cx="1340.28" cy="1250.75" r="31.86"/></g><g id="Layer_9" data-name="Layer 9"><circle class="cls-6" cx="2050" cy="2046.62" r="2046.62"/><path class="cls-7" d="M3290.43,2676.64c-116.49-82.34-196.8-90.9-250.22-183.92-11.93-20.76-34.13-60.63-27.8-109.07,6.51-49.83,39.36-79.08,89-127.3,43.46-42.2,140.52-136.42,197.55-210.6,51.88-67.47,77.1-126.74,100.52-181.78,27.75-65.23,147.27-346.2,55.51-633.95C3339,866.09,2926.34,621.17,2594,666.35c-252,34.26-408.12,174.29-408.12,174.29C2156,874.31,2129.67,902,2108.94,923c-31.84,32.33-44.15,42.73-60.94,42.73s-29.1-10.4-60.94-42.73c-20.73-21-47.09-48.71-76.89-82.38,0,0-156.07-140-408.12-174.29C1169.66,621.17,757,866.09,641,1230c-91.76,287.75,27.76,568.72,55.51,634,23.42,55,48.64,114.31,100.52,181.78,57,74.18,154.09,168.4,197.55,210.6,49.66,48.22,82.51,77.47,89,127.3,6.33,48.44-15.87,88.31-27.8,109.07-53.42,93-133.73,101.58-250.22,183.92-46.16,32.64-123,86.93-154.9,144.7-93.53,169.21,124.71,501.69,338.2,695.12,396.49,359.23,909.41,359.23,1059.13,359.23s662.64,0,1059.13-359.23c213.49-193.43,431.73-525.91,338.2-695.12C3413.39,2763.57,3336.59,2709.28,3290.43,2676.64Z" transform="translate(2 -1.88)"/><path class="cls-3" d="M2698.81,2419.86H1452.87" transform="translate(2 -1.88)"/><ellipse class="cls-4" cx="1454.87" cy="1322.31" rx="254.92" ry="407.86"/><ellipse class="cls-4" cx="2700.81" cy="1361.99" rx="254.92" ry="407.86"/><circle class="cls-5" cx="2586.22" cy="1290.44" r="31.86"/><circle class="cls-5" cx="2700.81" cy="1127.15" r="71.55"/><circle class="cls-5" cx="1454.87" cy="1087.46" r="71.55"/><circle class="cls-5" cx="1340.28" cy="1250.75" r="31.86"/><path class="cls-8" d="M2048,3294a946.84,946.84,0,0,1-183.81-20c-210.56-44.07-360.4-151-444.83-223.84" transform="translate(2 -1.88)"/><path class="cls-8" d="M2048,3294a946.84,946.84,0,0,0,183.81-20c210.56-44.07,360.4-151,444.83-223.84" transform="translate(2 -1.88)"/></g></svg>