<?xml version="1.0" encoding="UTF-8" standalone="no"?>
<!-- Uploaded to: SVG Repo, www.svgrepo.com, Generator: SVG Repo Mixer Tools -->

<svg
   height="800"
   width="800"
   version="1.1"
   id="Capa_1"
   viewBox="0 0 25.848 25.848"
   xml:space="preserve"
   sodipodi:docname="price-tag-svgrepo-com.svg"
   inkscape:export-filename="..\Documents\playground\web3\solana\sol-monkey-web\public\price-tag-svgrepo-com.svg"
   inkscape:export-xdpi="96"
   inkscape:export-ydpi="96"
   xmlns:inkscape="http://www.inkscape.org/namespaces/inkscape"
   xmlns:sodipodi="http://sodipodi.sourceforge.net/DTD/sodipodi-0.dtd"
   xmlns="http://www.w3.org/2000/svg"
   xmlns:svg="http://www.w3.org/2000/svg"><defs
   id="defs18" /><sodipodi:namedview
   id="namedview16"
   pagecolor="#505050"
   bordercolor="#eeeeee"
   borderopacity="1"
   inkscape:showpageshadow="0"
   inkscape:pageopacity="0"
   inkscape:pagecheckerboard="0"
   inkscape:deskcolor="#505050"
   showgrid="false" />
<g
   id="g13">
	<path
   style="fill:#008000"
   d="m 0.0085,4.958 c 0,3.927 1.712,6.78 1.784,6.899 0.145,0.237 0.396,0.367 0.655,0.367 0.136,0 0.273,-0.036 0.397,-0.111 0.362,-0.22 0.478,-0.691 0.259,-1.053 -0.016,-0.026 -1.561,-2.623 -1.561,-6.102 0,-1.984 1.29,-3.424 3.068,-3.424 1.692,0 3.068,1.376 3.068,3.069 0,0.721 -0.349,2.553 -0.483,3.198 -0.087,0.415 0.18,0.821 0.595,0.908 0.415,0.085 0.821,-0.18 0.907,-0.594 C 8.7505,7.862 9.2145,5.613 9.2145,4.603 9.2145,2.065 7.1495,0 4.6105,0 1.9875,0 0.0085,2.131 0.0085,4.958 Z m 4.472,1.207 c -0.305,2.549 -0.747,7.516 -0.239,8.022 l 11.146,11.147 c 0.685,0.686 1.798,0.686 2.484,-0.001 l 7.453,-7.452 c 0.686,-0.685 0.686,-1.798 0,-2.484 L 14.1775,4.251 c -0.177,-0.177 -2.105,-0.185 -4.273,-0.072 0.012,0.143 0.043,0.278 0.043,0.424 0,0.556 -0.123,1.418 -0.252,2.176 0.227,0.337 0.36,0.742 0.36,1.179 0,1.164 -0.944,2.108 -2.108,2.108 -1.164,0 -2.108,-0.944 -2.108,-2.108 0,-0.717 0.359,-1.349 0.906,-1.729 0.112,-0.667 0.202,-1.311 0.202,-1.626 0,-0.068 -0.014,-0.131 -0.02,-0.198 -0.267,0.028 -0.53,0.057 -0.779,0.088 -1.473,0.181 -1.488,0.178 -1.668,1.672 z"
   id="path11"
   sodipodi:nodetypes="scsccssscccsssccccccccscssscsccc" />
<text
   xml:space="preserve"
   style="font-style:normal;font-variant:normal;font-weight:normal;font-stretch:normal;font-size:11.1107px;font-family:Broadway;-inkscape-font-specification:Broadway;fill:#ffffff;stroke-width:0.925886"
   x="-3.5442557"
   y="24.855509"
   id="text328"
   transform="rotate(-40.625247)"><tspan
     sodipodi:role="line"
     id="tspan326"
     style="font-style:normal;font-variant:normal;font-weight:normal;font-stretch:normal;font-family:Broadway;-inkscape-font-specification:Broadway;fill:#ffffff;stroke-width:0.925886"
     x="-3.5442557"
     y="24.855509">M</tspan></text></g>
</svg>
